<svg width="601.368" height="64.554" viewBox="0 0 601.368 64.554" xmlns="http://www.w3.org/2000/svg"><g id="svgGroup" stroke-linecap="round" fill-rule="evenodd" font-size="9pt" stroke="#09b59b" stroke-width=".25mm" fill="#000000" style="stroke:#09b59b;stroke-width:.25mm;fill:#000000"><path d="M 406.738 61.035 L 402.344 61.035 L 402.344 39.941 A 21.311 21.311 0 0 1 403.114 34.775 A 14.017 14.017 0 0 1 408.301 27.148 Q 410.938 25.195 413.574 25.195 A 6.711 6.711 0 0 1 416.854 25.974 Q 419.164 27.241 420.313 30.566 Q 421.094 32.91 421.094 35.84 L 421.094 55.176 Q 421.094 58.382 419.999 59.748 A 2.598 2.598 0 0 1 418.945 60.547 A 5.838 5.838 0 0 1 418.081 60.772 Q 416.696 61.035 414.258 61.035 L 414.258 63.477 L 435.254 63.477 A 4.699 4.699 0 0 0 435.189 62.657 Q 434.945 61.287 433.789 61.133 Q 433.498 61.06 433.097 61.041 A 6.178 6.178 0 0 0 432.812 61.035 L 428.418 61.035 L 428.418 36.816 L 428.418 36.035 A 18.328 18.328 0 0 1 429.942 31.642 A 12.525 12.525 0 0 1 435.352 26.074 A 10.891 10.891 0 0 1 437.17 25.39 A 7.935 7.935 0 0 1 439.258 25.098 A 7.333 7.333 0 0 1 442.581 25.826 Q 444.211 26.641 445.325 28.368 A 10.963 10.963 0 0 1 446.289 30.273 A 13.407 13.407 0 0 1 447.104 33.414 A 17.58 17.58 0 0 1 447.266 35.84 L 447.266 55.176 Q 447.266 58.382 446.171 59.748 A 2.598 2.598 0 0 1 445.117 60.547 A 5.838 5.838 0 0 1 444.253 60.772 Q 442.868 61.035 440.43 61.035 L 440.43 63.477 L 462.012 63.477 A 4.699 4.699 0 0 0 461.947 62.657 Q 461.703 61.287 460.547 61.133 Q 460.255 61.06 459.855 61.041 A 6.178 6.178 0 0 0 459.57 61.035 L 454.59 61.035 L 454.59 36.816 Q 454.59 30.161 451.725 26.156 A 12.466 12.466 0 0 0 448.047 22.754 A 12.118 12.118 0 0 0 441.699 20.996 A 13.08 13.08 0 0 0 431.435 25.729 A 19.272 19.272 0 0 0 429.785 27.93 A 20.192 20.192 0 0 0 427.832 31.641 A 18.463 18.463 0 0 0 426.371 27.447 A 11.312 11.312 0 0 0 420.117 21.68 Q 418.359 20.996 416.504 20.996 Q 409.473 20.996 404.883 26.953 A 17.991 17.991 0 0 0 402.246 31.738 L 401.855 21.973 L 387.695 21.973 L 387.695 24.414 L 395.02 24.414 L 395.02 55.176 A 12.133 12.133 0 0 1 394.898 56.968 Q 394.571 59.146 393.366 60.073 A 3.109 3.109 0 0 1 392.48 60.547 A 6.814 6.814 0 0 1 391.541 60.777 Q 390.108 61.035 387.695 61.035 L 387.695 63.477 L 409.18 63.477 A 4.321 4.321 0 0 0 409.11 62.663 Q 409.025 62.226 408.84 61.91 A 1.601 1.601 0 0 0 407.715 61.133 Q 407.227 61.035 406.738 61.035 Z M 377.93 22.461 L 379.883 22.461 L 379.395 4.883 L 334.375 4.883 L 334.375 7.422 L 342.188 7.422 L 342.188 60.938 L 334.375 60.938 L 334.375 63.477 L 379.395 63.477 L 379.883 45.898 L 377.93 45.898 L 376.563 50.488 A 28.216 28.216 0 0 1 375.195 54.224 Q 372.925 59.204 369.336 60.449 A 9.676 9.676 0 0 1 366.623 60.93 A 11.049 11.049 0 0 1 366.211 60.938 L 350.586 60.938 L 350.586 34.668 L 370.703 34.668 L 370.703 31.836 L 350.586 31.836 L 350.586 7.422 L 366.211 7.422 A 8.792 8.792 0 0 1 373.637 11.393 Q 374.713 12.879 375.554 14.922 A 25.922 25.922 0 0 1 376.27 16.895 A 21.591 21.591 0 0 1 376.361 17.175 Q 376.481 17.551 376.553 17.832 A 7.114 7.114 0 0 1 376.562 17.871 L 377.93 22.461 Z M 36.328 21.484 L 39.258 21.484 L 39.258 4.395 Q 36.914 4.395 36.523 5.859 A 4.184 4.184 0 0 0 36.414 6.374 Q 36.331 6.919 36.328 7.666 A 13.872 13.872 0 0 0 36.328 7.715 A 31.049 31.049 0 0 0 23.639 4.019 A 37.731 37.731 0 0 0 20.703 3.906 A 30.487 30.487 0 0 0 14.041 4.591 Q 9.539 5.599 6.225 8.091 A 18.145 18.145 0 0 0 4.297 9.766 A 13.441 13.441 0 0 0 0.391 19.336 A 13.298 13.298 0 0 0 4.729 29.184 Q 6.517 30.918 9.04 32.409 A 30.253 30.253 0 0 0 9.57 32.715 Q 10.988 33.466 18.107 36.568 A 1205.04 1205.04 0 0 0 20.703 37.695 A 53.966 53.966 0 0 1 24.695 39.655 Q 28.529 41.754 30.524 43.882 A 9.722 9.722 0 0 1 31.836 45.605 Q 33.105 47.852 33.105 50.488 A 10.861 10.861 0 0 1 32.176 55.069 Q 31.035 57.557 28.49 59.24 A 14.782 14.782 0 0 1 26.465 60.352 A 16.394 16.394 0 0 1 21.393 61.633 A 19.894 19.894 0 0 1 19.531 61.719 Q 4.59 61.523 2.93 43.457 L 0 43.457 L 0 63.672 Q 2.344 63.672 2.734 62.305 A 4.329 4.329 0 0 0 2.82 61.835 Q 2.93 61.011 2.93 59.473 A 30.092 30.092 0 0 0 19.275 64.446 A 36.327 36.327 0 0 0 20.02 64.453 Q 28.919 64.453 34.63 60.651 A 18.788 18.788 0 0 0 37.402 58.398 A 14.159 14.159 0 0 0 41.602 48.156 A 16.914 16.914 0 0 0 41.602 48.145 A 14.172 14.172 0 0 0 36.546 37.222 A 24.178 24.178 0 0 0 32.227 34.18 A 30.117 30.117 0 0 0 31.26 33.7 Q 28.577 32.416 20.801 29.004 Q 14.014 26.106 11.157 23.09 A 9.086 9.086 0 0 1 9.863 21.387 Q 8.691 19.238 8.691 16.797 Q 8.691 11.306 13.161 8.635 A 13.241 13.241 0 0 1 15.039 7.715 A 15.56 15.56 0 0 1 19.223 6.73 A 19.069 19.069 0 0 1 21.094 6.641 A 19.233 19.233 0 0 1 26.272 7.298 A 13.635 13.635 0 0 1 33.594 12.207 A 13.784 13.784 0 0 1 36.178 18.735 Q 36.354 20.053 36.328 21.484 Z M 481.641 32.324 L 481.641 0 L 466.992 0 L 466.992 2.441 L 474.316 2.441 L 474.316 55.176 A 12.133 12.133 0 0 1 474.195 56.968 Q 473.868 59.146 472.663 60.073 A 3.109 3.109 0 0 1 471.777 60.547 A 6.814 6.814 0 0 1 470.838 60.777 Q 469.405 61.035 466.992 61.035 L 466.992 63.477 L 479.297 63.477 L 480.176 57.031 A 14.903 14.903 0 0 0 490.567 64.069 A 20.562 20.562 0 0 0 492.871 64.355 A 12.912 12.912 0 0 0 493.764 64.437 A 10.44 10.44 0 0 0 494.336 64.453 A 18.662 18.662 0 0 0 508.14 58.693 A 23.228 23.228 0 0 0 508.789 58.008 A 21.85 21.85 0 0 0 513.947 46.56 A 29.765 29.765 0 0 0 514.258 42.188 A 31.71 31.71 0 0 0 513.565 35.356 Q 512.564 30.815 510.113 27.434 A 18.793 18.793 0 0 0 508.398 25.391 A 14.697 14.697 0 0 0 497.76 20.997 A 18.768 18.768 0 0 0 497.559 20.996 A 18.287 18.287 0 0 0 491.101 22.076 Q 486.295 23.878 483.42 28.683 A 21.278 21.278 0 0 0 482.422 30.566 A 10.666 10.666 0 0 0 481.778 31.94 A 9.476 9.476 0 0 0 481.641 32.324 Z M 135.547 54.297 L 133.008 54.199 A 25.074 25.074 0 0 1 132.666 56.625 Q 131.819 60.938 129.627 61.377 A 2.581 2.581 0 0 1 129.199 61.426 Q 126.905 61.249 126.604 57.245 A 16.365 16.365 0 0 1 126.562 56.348 L 126.563 35.742 A 20.239 20.239 0 0 0 125.802 29.942 Q 123.874 23.502 117.062 21.674 A 21.976 21.976 0 0 0 112.598 20.996 L 110.84 20.996 A 36.611 36.611 0 0 0 105.841 21.311 Q 98.978 22.261 96.191 26.074 A 7.119 7.119 0 0 0 95.433 27.423 A 5.065 5.065 0 0 0 95.02 29.395 A 4.786 4.786 0 0 0 95.194 30.74 Q 95.638 32.258 97.218 32.758 A 4.798 4.798 0 0 0 97.852 32.91 Q 98.34 33.008 98.828 33.008 A 3.018 3.018 0 0 0 101.339 31.701 Q 101.804 31.084 102.148 30.176 A 110.173 110.173 0 0 1 102.63 28.924 Q 103.591 26.476 103.991 25.898 A 1.531 1.531 0 0 1 104.004 25.879 A 5.909 5.909 0 0 1 107.322 23.726 Q 108.423 23.438 109.766 23.438 A 13.089 13.089 0 0 1 113.691 24.243 Q 117.81 25.847 118.876 30.505 A 15.578 15.578 0 0 1 119.238 33.496 L 119.238 39.648 Q 96.289 39.648 92.969 49.219 A 12.763 12.763 0 0 0 92.415 52.232 A 15.039 15.039 0 0 0 92.383 53.223 A 12.906 12.906 0 0 0 92.99 57.31 Q 94.241 61.071 98.067 62.986 A 13.838 13.838 0 0 0 98.926 63.379 A 14.611 14.611 0 0 0 104.492 64.453 A 17.146 17.146 0 0 0 111.433 63.075 A 16.475 16.475 0 0 0 116.504 59.57 A 14.66 14.66 0 0 0 118.203 57.421 A 11.962 11.962 0 0 0 119.141 55.664 A 16.9 16.9 0 0 0 119.943 59.108 Q 121.748 64.137 126.671 64.435 A 10.328 10.328 0 0 0 127.148 64.453 A 8.941 8.941 0 0 0 130.751 63.777 Q 134.881 61.974 135.449 55.371 A 7.615 7.615 0 0 0 135.522 54.81 A 5.671 5.671 0 0 0 135.547 54.297 Z M 88.477 54.004 L 85.938 53.125 A 15.874 15.874 0 0 1 82.652 57.856 Q 79.276 61.127 74.023 61.621 Q 73.242 61.719 72.461 61.719 A 11.263 11.263 0 0 1 63.475 57.487 A 17.499 17.499 0 0 1 61.621 54.785 A 22.855 22.855 0 0 1 59.112 47.481 A 30.788 30.788 0 0 1 58.691 42.285 Q 58.691 35.489 60.593 31.09 A 12.762 12.762 0 0 1 65.43 25.195 A 11.618 11.618 0 0 1 71.68 23.437 A 10.183 10.183 0 0 1 73.984 23.677 Q 77.213 24.429 78.027 27.539 A 16.006 16.006 0 0 1 78.131 27.985 Q 78.292 28.717 78.505 29.921 A 98.589 98.589 0 0 1 78.516 29.98 A 17.594 17.594 0 0 0 78.819 31.549 Q 79.221 33.191 79.869 34.092 A 2.861 2.861 0 0 0 80.664 34.863 A 5.752 5.752 0 0 0 82.523 35.419 A 6.651 6.651 0 0 0 82.812 35.449 A 6.939 6.939 0 0 0 83.193 35.461 Q 85.883 35.472 86.823 33.242 A 5.211 5.211 0 0 0 87.012 32.715 A 5.384 5.384 0 0 0 87.158 32.056 A 4.016 4.016 0 0 0 87.207 31.445 Q 87.207 27.167 82.523 24.186 A 19.745 19.745 0 0 0 80.859 23.242 Q 76.367 20.996 71.094 20.996 Q 58.008 20.996 52.832 31.641 A 24.629 24.629 0 0 0 50.629 39.269 A 30.955 30.955 0 0 0 50.391 43.164 A 25.354 25.354 0 0 0 51.394 50.508 A 18.645 18.645 0 0 0 59.082 60.84 A 21.31 21.31 0 0 0 71.023 64.452 A 25.704 25.704 0 0 0 71.289 64.453 Q 81.445 64.453 86.621 57.324 A 18.253 18.253 0 0 0 87.895 55.249 A 15.181 15.181 0 0 0 88.477 54.004 Z M 160.84 61.035 L 153.809 61.035 L 153.809 41.602 A 23.402 23.402 0 0 1 154.626 35.254 A 17.536 17.536 0 0 1 159.277 27.344 Q 160.963 25.735 162.228 25.328 A 2.771 2.771 0 0 1 162.891 25.195 A 2.428 2.428 0 0 1 164.335 25.697 Q 165.116 26.263 165.821 27.468 A 10.411 10.411 0 0 1 165.918 27.637 A 15.603 15.603 0 0 0 166.64 28.79 Q 167.395 29.879 168.103 30.385 A 2.443 2.443 0 0 0 168.848 30.762 A 3.69 3.69 0 0 0 170.001 30.957 A 3.522 3.522 0 0 0 170.02 30.957 A 4.546 4.546 0 0 0 171.498 30.733 Q 173.169 30.161 173.73 28.125 A 3.69 3.69 0 0 0 173.926 26.971 A 3.522 3.522 0 0 0 173.926 26.953 A 6.396 6.396 0 0 0 173.59 24.805 Q 172.697 22.292 169.434 21.582 A 10.169 10.169 0 0 0 168.251 21.414 A 8.438 8.438 0 0 0 167.578 21.387 Q 161.719 21.387 157.129 26.367 Q 154.98 28.711 153.711 31.641 L 153.32 21.973 L 139.16 21.973 L 139.16 24.414 L 146.484 24.414 L 146.484 55.176 A 12.133 12.133 0 0 1 146.363 56.968 Q 146.036 59.146 144.831 60.073 A 3.109 3.109 0 0 1 143.945 60.547 A 6.814 6.814 0 0 1 143.005 60.777 Q 141.573 61.035 139.16 61.035 L 139.16 63.477 L 163.281 63.477 A 4.699 4.699 0 0 0 163.216 62.657 Q 162.972 61.287 161.816 61.133 Q 161.525 61.06 161.125 61.041 A 6.178 6.178 0 0 0 160.84 61.035 Z M 588.281 61.035 L 581.25 61.035 L 581.25 41.602 A 23.402 23.402 0 0 1 582.068 35.254 A 17.536 17.536 0 0 1 586.719 27.344 Q 588.405 25.735 589.669 25.328 A 2.771 2.771 0 0 1 590.332 25.195 A 2.428 2.428 0 0 1 591.776 25.697 Q 592.558 26.263 593.263 27.468 A 10.411 10.411 0 0 1 593.359 27.637 A 15.603 15.603 0 0 0 594.081 28.79 Q 594.837 29.879 595.544 30.385 A 2.443 2.443 0 0 0 596.289 30.762 A 3.69 3.69 0 0 0 597.443 30.957 A 3.522 3.522 0 0 0 597.461 30.957 A 4.546 4.546 0 0 0 598.939 30.733 Q 600.61 30.161 601.172 28.125 A 3.69 3.69 0 0 0 601.367 26.971 A 3.522 3.522 0 0 0 601.367 26.953 A 6.396 6.396 0 0 0 601.031 24.805 Q 600.139 22.292 596.875 21.582 A 10.169 10.169 0 0 0 595.692 21.414 A 8.438 8.438 0 0 0 595.02 21.387 Q 589.16 21.387 584.57 26.367 Q 582.422 28.711 581.152 31.641 L 580.762 21.973 L 566.602 21.973 L 566.602 24.414 L 573.926 24.414 L 573.926 55.176 A 12.133 12.133 0 0 1 573.804 56.968 Q 573.478 59.146 572.272 60.073 A 3.109 3.109 0 0 1 571.387 60.547 A 6.814 6.814 0 0 1 570.447 60.777 Q 569.014 61.035 566.602 61.035 L 566.602 63.477 L 590.723 63.477 A 4.699 4.699 0 0 0 590.657 62.657 Q 590.414 61.287 589.258 61.133 Q 588.966 61.06 588.566 61.041 A 6.178 6.178 0 0 0 588.281 61.035 Z M 249.902 21.973 L 249.902 24.414 L 256.738 24.414 L 256.738 51.953 A 20.944 20.944 0 0 0 257.532 56.803 Q 259.77 64.247 267.969 64.551 A 10.724 10.724 0 0 0 273.297 63.276 Q 277.716 60.801 279.199 53.516 L 279.199 53.32 L 276.563 52.832 A 25.594 25.594 0 0 1 275.341 56.124 Q 273.721 59.651 271.424 60.941 A 5.719 5.719 0 0 1 269.434 61.621 A 5.359 5.359 0 0 1 266.73 60.859 Q 264.131 59.223 264.063 54.102 L 264.063 24.414 L 279.199 24.414 L 279.199 21.973 L 264.063 21.973 L 264.063 10.645 L 256.738 12.695 L 256.738 21.973 L 249.902 21.973 Z M 281.641 21.973 L 281.641 24.414 L 288.477 24.414 L 288.477 51.953 A 20.944 20.944 0 0 0 289.27 56.803 Q 291.508 64.247 299.707 64.551 A 10.724 10.724 0 0 0 305.035 63.276 Q 309.455 60.801 310.938 53.516 L 310.938 53.32 L 308.301 52.832 A 25.594 25.594 0 0 1 307.079 56.124 Q 305.459 59.651 303.162 60.941 A 5.719 5.719 0 0 1 301.172 61.621 A 5.359 5.359 0 0 1 298.468 60.859 Q 295.869 59.223 295.801 54.102 L 295.801 24.414 L 310.938 24.414 L 310.938 21.973 L 295.801 21.973 L 295.801 10.645 L 288.477 12.695 L 288.477 21.973 L 281.641 21.973 Z M 243.945 54.102 L 241.504 53.223 A 16.157 16.157 0 0 1 238.543 57.685 Q 235.391 60.979 230.507 61.616 A 17.012 17.012 0 0 1 230.469 61.621 A 19.673 19.673 0 0 1 229.172 61.709 A 16.666 16.666 0 0 1 228.613 61.719 Q 218.359 61.719 215.723 49.512 A 34.366 34.366 0 0 1 215.036 45.212 A 43.59 43.59 0 0 1 214.844 41.992 L 226.563 42.188 Q 237.891 42.373 241.538 40.175 A 5.481 5.481 0 0 0 241.895 39.941 A 6.318 6.318 0 0 0 244.485 35.305 A 9.062 9.062 0 0 0 244.531 34.375 Q 244.531 27.734 237.793 23.828 A 20.329 20.329 0 0 0 229.607 21.152 A 25.505 25.505 0 0 0 226.758 20.996 Q 214.872 20.996 209.56 30.625 A 23.701 23.701 0 0 0 209.277 31.152 A 24.453 24.453 0 0 0 206.693 40.029 A 30.101 30.101 0 0 0 206.543 43.066 A 26.612 26.612 0 0 0 207.479 50.34 A 18.662 18.662 0 0 0 215.234 61.035 A 20.749 20.749 0 0 0 226.124 64.436 A 25.222 25.222 0 0 0 227.051 64.453 A 22.961 22.961 0 0 0 233.305 63.652 A 15.911 15.911 0 0 0 242.578 56.836 A 26.908 26.908 0 0 0 243.871 54.272 A 24.774 24.774 0 0 0 243.945 54.102 Z M 559.473 54.102 L 557.031 53.223 A 16.157 16.157 0 0 1 554.071 57.685 Q 550.918 60.979 546.034 61.616 A 17.012 17.012 0 0 1 545.996 61.621 A 19.673 19.673 0 0 1 544.699 61.709 A 16.666 16.666 0 0 1 544.141 61.719 Q 533.887 61.719 531.25 49.512 A 34.366 34.366 0 0 1 530.563 45.212 A 43.59 43.59 0 0 1 530.371 41.992 L 542.09 42.188 Q 553.418 42.373 557.065 40.175 A 5.481 5.481 0 0 0 557.422 39.941 A 6.318 6.318 0 0 0 560.012 35.305 A 9.062 9.062 0 0 0 560.059 34.375 Q 560.059 27.734 553.32 23.828 A 20.329 20.329 0 0 0 545.134 21.152 A 25.505 25.505 0 0 0 542.285 20.996 Q 530.399 20.996 525.087 30.625 A 23.701 23.701 0 0 0 524.805 31.152 A 24.453 24.453 0 0 0 522.221 40.029 A 30.101 30.101 0 0 0 522.07 43.066 A 26.612 26.612 0 0 0 523.006 50.34 A 18.662 18.662 0 0 0 530.762 61.035 A 20.749 20.749 0 0 0 541.652 64.436 A 25.222 25.222 0 0 0 542.578 64.453 A 22.961 22.961 0 0 0 548.832 63.652 A 15.911 15.911 0 0 0 558.105 56.836 A 26.908 26.908 0 0 0 559.399 54.272 A 24.774 24.774 0 0 0 559.473 54.102 Z M 197.559 61.035 L 192.285 61.035 L 192.285 0 L 177.637 0 L 177.637 2.441 L 184.961 2.441 L 184.961 55.176 A 12.133 12.133 0 0 1 184.839 56.968 Q 184.513 59.146 183.307 60.073 A 3.109 3.109 0 0 1 182.422 60.547 A 6.814 6.814 0 0 1 181.482 60.777 Q 180.049 61.035 177.637 61.035 L 177.637 63.477 L 200 63.477 A 4.699 4.699 0 0 0 199.935 62.657 Q 199.691 61.287 198.535 61.133 Q 198.244 61.06 197.844 61.041 A 6.178 6.178 0 0 0 197.559 61.035 Z M 499.847 26.333 A 9.691 9.691 0 0 0 494.531 24.902 Q 490.527 24.902 487.402 27.637 A 15.361 15.361 0 0 0 483.701 32.793 Q 482.543 35.348 482.006 38.597 A 37.697 37.697 0 0 0 481.543 44.727 A 33.445 33.445 0 0 0 481.865 49.483 A 24.263 24.263 0 0 0 483.008 54.199 Q 484.841 58.929 488.249 60.796 A 10.468 10.468 0 0 0 493.359 62.012 A 12.485 12.485 0 0 0 493.624 62.009 A 10.63 10.63 0 0 0 498.535 60.742 A 11.778 11.778 0 0 0 499.21 60.34 Q 504.243 57.102 505.522 48.974 A 39.42 39.42 0 0 0 505.957 42.871 A 37.165 37.165 0 0 0 505.742 38.783 A 27.282 27.282 0 0 0 504.98 34.668 A 25.032 25.032 0 0 0 504.808 34.014 Q 503.274 28.513 499.847 26.333 Z M 225.195 39.551 L 214.844 39.258 A 29.391 29.391 0 0 1 215.485 34.131 Q 217.041 27.173 222.168 24.609 A 10.198 10.198 0 0 1 226.953 23.438 Q 233.712 23.438 235.984 29.071 A 11.889 11.889 0 0 1 236.035 29.199 A 10.13 10.13 0 0 1 236.813 32.902 A 11.651 11.651 0 0 1 236.816 33.203 Q 236.816 38.086 232.129 39.16 A 16.882 16.882 0 0 1 230.718 39.375 Q 228.518 39.623 225.195 39.551 Z M 540.723 39.551 L 530.371 39.258 A 29.391 29.391 0 0 1 531.012 34.131 Q 532.568 27.173 537.695 24.609 A 10.198 10.198 0 0 1 542.48 23.438 Q 549.24 23.438 551.511 29.071 A 11.889 11.889 0 0 1 551.562 29.199 A 10.13 10.13 0 0 1 552.34 32.902 A 11.651 11.651 0 0 1 552.344 33.203 Q 552.344 38.086 547.656 39.16 A 16.882 16.882 0 0 1 546.246 39.375 Q 544.045 39.623 540.723 39.551 Z M 119.238 42.285 L 119.238 50.098 A 15.404 15.404 0 0 1 117.549 54.588 A 12.313 12.313 0 0 1 112.109 59.57 A 12.063 12.063 0 0 1 109.648 60.353 A 9.913 9.913 0 0 1 107.715 60.547 A 8.875 8.875 0 0 1 104.8 60.101 Q 102.145 59.182 100.953 56.361 A 10.695 10.695 0 0 1 100.391 54.59 A 12.93 12.93 0 0 1 100.154 52.959 A 16.761 16.761 0 0 1 100.098 51.562 A 8.444 8.444 0 0 1 100.869 47.862 Q 102.461 44.55 107.339 43.329 A 18.302 18.302 0 0 1 107.617 43.262 A 30.881 30.881 0 0 1 110.313 42.809 Q 113.882 42.354 119.238 42.285 Z" vector-effect="non-scaling-stroke"/></g></svg>